<?xml version="1.0" encoding="UTF-8"?>
<svg width="500" height="500" viewBox="0 0 500 500" xmlns="http://www.w3.org/2000/svg">
  <rect x="50" y="50" width="400" height="400" rx="80" fill="#0277bd"/>
  <g fill="white">
    <path d="M250 150 C 180 150, 150 220, 150 250 C 150 280, 180 350, 250 350 C 320 350, 350 280, 350 250 C 350 220, 320 150, 250 150 Z M 250 200 C 290 200, 300 230, 300 250 C 300 270, 290 300, 250 300 C 210 300, 200 270, 200 250 C 200 230, 210 200, 250 200 Z"/>
    <circle cx="250" cy="140" r="25"/>
  </g>
</svg> 